<svg xmlns="http://www.w3.org/2000/svg" width="50" height="60" viewBox="0 0 50 60"><g><g><path fill="#9299a9" d="M3 0h44a3 3 0 0 1 3 3v32H0V3a3 3 0 0 1 3-3z"/><path fill="#363636" d="M3 0h44a3 3 0 0 1 3 3v32H0V3a3 3 0 0 1 3-3z"/></g><g><g><text dominant-baseline="text-before-edge" style="line-height:20px" fill="#fff" font-family="'Montserrat','Montserrat-Light'" font-size="24" font-style="none" font-weight="lighter" transform="translate(11 9)"><tspan style="font-kerning:normal">30</tspan></text></g></g><g><path fill="#9299a9" d="M0 35h50v22a3 3 0 0 1-3 3H3a3 3 0 0 1-3-3z"/><path fill="#252525" d="M0 35h50v22a3 3 0 0 1-3 3H3a3 3 0 0 1-3-3z"/></g><g><g><text dominant-baseline="text-before-edge" style="line-height:20px" fill="#fff" font-family="'Roboto','Roboto-Regular'" font-size="12" font-style="none" font-weight="400" transform="translate(14 42)"><tspan style="font-kerning:normal">Sep.</tspan></text></g></g></g></svg>